  0
SECTION
  2
HEADER
  9
$ACADVER
  1
AC1014
  9
$HANDSEED
  5
FFFF
  9
$MEASUREMENT
 70
     1
  0
ENDSEC
  0
SECTION
  2
TABLES
  0
TABLE
  2
VPORT
  5
8
330
0
100
AcDbSymbolTable
 70
     4
  0
VPORT
  5
2E
330
8
100
AcDbSymbolTableRecord
100
AcDbViewportTableRecord
  2
*ACTIVE
 70
     0
 10
0.0
 20
0.0
 11
1.0
 21
1.0
 12
210.0
 22
148.5
 13
0.0
 23
0.0
 14
10.0
 24
10.0
 15
10.0
 25
10.0
 16
0.0
 26
0.0
 36
1.0
 17
0.0
 27
0.0
 37
0.0
 40
341.0
 41
1.24
 42
50.0
 43
0.0
 44
0.0
 50
0.0
 51
0.0
 71
     0
 72
   100
 73
     1
 74
     3
 75
     0
 76
     0
 77
     0
 78
     0
  0
ENDTAB
  0
TABLE
  2
LTYPE
  5
5
330
0
100
AcDbSymbolTable
 70
     1
  0
LTYPE
  5
14
330
5
100
AcDbSymbolTableRecord
100
AcDbLinetypeTableRecord
  2
BYBLOCK
 70
     0
  3

 72
    65
 73
     0
 40
0.0
  0
LTYPE
  5
15
330
5
100
AcDbSymbolTableRecord
100
AcDbLinetypeTableRecord
  2
BYLAYER
 70
     0
  3

 72
    65
 73
     0
 40
0.0
  0
LTYPE
  5
16
330
5
100
AcDbSymbolTableRecord
100
AcDbLinetypeTableRecord
  2
CONTINUOUS
 70
     0
  3
Solid line
 72
    65
 73
     0
 40
0.0
  0
ENDTAB
  0
TABLE
  2
LAYER
  5
2
100
AcDbSymbolTable
 70
11
  0
LAYER
  5
50
100
AcDbSymbolTableRecord
100
AcDbLayerTableRecord
  2
0
 70
0
  6
CONTINUOUS
  0
LAYER
  5
51
100
AcDbSymbolTableRecord
100
AcDbLayerTableRecord
  2
un178
 70
0
  6
CONTINUOUS
  0
LAYER
  5
52
100
AcDbSymbolTableRecord
100
AcDbLayerTableRecord
  2
outline
 70
0
  6
CONTINUOUS
  0
LAYER
  5
53
100
AcDbSymbolTableRecord
100
AcDbLayerTableRecord
  2
holes
 70
0
  6
CONTINUOUS
  0
LAYER
  5
54
100
AcDbSymbolTableRecord
100
AcDbLayerTableRecord
  2
circuitholes
 70
0
  6
CONTINUOUS
  0
LAYER
  5
55
100
AcDbSymbolTableRecord
100
AcDbLayerTableRecord
  2
vent
 70
0
  6
CONTINUOUS
  0
LAYER
  5
56
100
AcDbSymbolTableRecord
100
AcDbLayerTableRecord
  2
rj45
 70
0
  6
CONTINUOUS
  0
LAYER
  5
57
100
AcDbSymbolTableRecord
100
AcDbLayerTableRecord
  2
insert
 70
0
  6
CONTINUOUS
  0
LAYER
  5
58
100
AcDbSymbolTableRecord
100
AcDbLayerTableRecord
  2
circuit
 70
0
  6
CONTINUOUS
  0
LAYER
  5
59
100
AcDbSymbolTableRecord
100
AcDbLayerTableRecord
  2
Layer_1
 70
0
  6
CONTINUOUS
  0
LAYER
  5
5a
100
AcDbSymbolTableRecord
100
AcDbLayerTableRecord
  2
sensors
 70
0
  6
CONTINUOUS
  0
ENDTAB
  0
TABLE
  2
STYLE
  5
3
330
0
100
AcDbSymbolTable
 70
     1
  0
STYLE
  5
11
330
3
100
AcDbSymbolTableRecord
100
AcDbTextStyleTableRecord
  2
STANDARD
 70
     0
 40
0.0
 41
1.0
 50
0.0
 71
     0
 42
2.5
  3
txt
  4

  0
ENDTAB
  0
TABLE
  2
VIEW
  5
6
330
0
100
AcDbSymbolTable
 70
     0
  0
ENDTAB
  0
TABLE
  2
UCS
  5
7
330
0
100
AcDbSymbolTable
 70
     0
  0
ENDTAB
  0
TABLE
  2
APPID
  5
9
330
0
100
AcDbSymbolTable
 70
     2
  0
APPID
  5
12
330
9
100
AcDbSymbolTableRecord
100
AcDbRegAppTableRecord
  2
ACAD
 70
     0
  0
ENDTAB
  0
TABLE
  2
DIMSTYLE
  5
A
330
0
100
AcDbSymbolTable
 70
     1
  0
DIMSTYLE
105
27
330
A
100
AcDbSymbolTableRecord
100
AcDbDimStyleTableRecord
  2
ISO-25
 70
     0
  3

  4

  5

  6

  7

 40
1.0
 41
2.5
 42
0.625
 43
3.75
 44
1.25
 45
0.0
 46
0.0
 47
0.0
 48
0.0
140
2.5
141
2.5
142
0.0
143
0.03937007874016
144
1.0
145
0.0
146
1.0
147
0.625
 71
     0
 72
     0
 73
     0
 74
     0
 75
     0
 76
     0
 77
     1
 78
     8
170
     0
171
     3
172
     1
173
     0
174
     0
175
     0
176
     0
177
     0
178
     0
270
     2
271
     2
272
     2
273
     2
274
     3
340
11
275
     0
280
     0
281
     0
282
     0
283
     0
284
     8
285
     0
286
     0
287
     3
288
     0
  0
ENDTAB
  0
TABLE
  2
BLOCK_RECORD
  5
1
330
0
100
AcDbSymbolTable
 70
     1
  0
BLOCK_RECORD
  5
1F
330
1
100
AcDbSymbolTableRecord
100
AcDbBlockTableRecord
  2
*MODEL_SPACE
  0
BLOCK_RECORD
  5
1B
330
1
100
AcDbSymbolTableRecord
100
AcDbBlockTableRecord
  2
*PAPER_SPACE
  0
ENDTAB
  0
ENDSEC
  0
SECTION
  2
BLOCKS
  0
BLOCK
  5
20
330
1F
100
AcDbEntity
  8
0
100
AcDbBlockBegin
  2
*MODEL_SPACE
 70
     0
 10
0.0
 20
0.0
 30
0.0
  3
*MODEL_SPACE
  1

  0
ENDBLK
  5
21
330
1F
100
AcDbEntity
  8
0
100
AcDbBlockEnd
  0
BLOCK
  5
1C
330
1B
100
AcDbEntity
 67
     1
  8
0
100
AcDbBlockBegin
  2
*PAPER_SPACE
  1

  0
ENDBLK
  5
1D
330
1B
100
AcDbEntity
 67
     1
  8
0
100
AcDbBlockEnd
  0
ENDSEC
  0
SECTION
  2
ENTITIES
  0
LWPOLYLINE
  5
100
100
AcDbEntity
  8
un178
 62
7
100
AcDbPolyline
 90
4
 70
1
 10
-3.572914
 20
94.936855
 30
0.0
 10
87.395210
 20
94.936855
 30
0.0
 10
87.395210
 20
19.859760
 30
0.0
 10
-3.572914
 20
19.859760
 30
0.0
  0
LWPOLYLINE
  5
101
100
AcDbEntity
  8
un178
 62
7
100
AcDbPolyline
 90
4
 70
1
 10
-3.572914
 20
19.859772
 30
0.0
 10
87.395210
 20
19.859772
 30
0.0
 10
87.395210
 20
-55.217324
 30
0.0
 10
-3.572914
 20
-55.217324
 30
0.0
  0
LWPOLYLINE
  5
102
100
AcDbEntity
  8
outline
 62
7
100
AcDbPolyline
 90
16
 70
1
 10
-6.710124
 20
99.236609
 30
0.0
 10
-8.416980
 20
97.529750
 30
0.0
 10
-8.416980
 20
74.335202
 30
0.0
 10
-42.325398
 20
74.328730
 30
0.0
 10
-58.297999
 20
59.310979
 30
0.0
 10
-58.297999
 20
-17.255292
 30
0.0
 10
-56.707560
 20
-20.427380
 30
0.0
 10
-53.768921
 20
-21.550368
 30
0.0
 10
-18.744552
 20
-21.550368
 30
0.0
 10
-8.619241
 20
-33.629480
 30
0.0
 10
-8.619241
 20
-58.355668
 30
0.0
 10
-6.912385
 20
-60.062548
 30
0.0
 10
92.612109
 20
-60.062548
 30
0.0
 10
94.318375
 20
-58.355668
 30
0.0
 10
94.318375
 20
97.529750
 30
0.0
 10
92.612109
 20
99.236609
 30
0.0
  0
LWPOLYLINE
  5
103
100
AcDbEntity
  8
holes
 62
7
100
AcDbPolyline
 90
8
 70
1
 10
0.012676
 20
91.934330
 30
0.0
 10
-0.976607
 20
91.524239
 30
0.0
 10
-1.386306
 20
90.534794
 30
0.0
 10
-0.976414
 20
89.545703
 30
0.0
 10
0.012676
 20
89.135811
 30
0.0
 10
1.002125
 20
89.545511
 30
0.0
 10
1.412215
 20
90.534794
 30
0.0
 10
1.002320
 20
91.524435
 30
0.0
  0
LWPOLYLINE
  5
104
100
AcDbEntity
  8
holes
 62
7
100
AcDbPolyline
 90
8
 70
1
 10
83.411550
 20
91.934330
 30
0.0
 10
82.422264
 20
91.524239
 30
0.0
 10
82.012565
 20
90.534794
 30
0.0
 10
82.422460
 20
89.545703
 30
0.0
 10
83.411550
 20
89.135811
 30
0.0
 10
84.400998
 20
89.545511
 30
0.0
 10
84.811086
 20
90.534794
 30
0.0
 10
84.401191
 20
91.524435
 30
0.0
  0
LWPOLYLINE
  5
105
100
AcDbEntity
  8
holes
 62
7
100
AcDbPolyline
 90
8
 70
1
 10
0.012676
 20
25.292418
 30
0.0
 10
-0.976610
 20
24.882322
 30
0.0
 10
-1.386306
 20
23.892879
 30
0.0
 10
-0.976420
 20
22.903774
 30
0.0
 10
0.012676
 20
22.493873
 30
0.0
 10
1.002131
 20
22.903575
 30
0.0
 10
1.412215
 20
23.892879
 30
0.0
 10
1.002320
 20
24.882517
 30
0.0
  0
LWPOLYLINE
  5
106
100
AcDbEntity
  8
holes
 62
7
100
AcDbPolyline
 90
8
 70
1
 10
83.411550
 20
25.292418
 30
0.0
 10
82.422261
 20
24.882322
 30
0.0
 10
82.012565
 20
23.892879
 30
0.0
 10
82.422451
 20
22.903774
 30
0.0
 10
83.411550
 20
22.493873
 30
0.0
 10
84.401004
 20
22.903575
 30
0.0
 10
84.811086
 20
23.892879
 30
0.0
 10
84.401191
 20
24.882517
 30
0.0
  0
LWPOLYLINE
  5
107
100
AcDbEntity
  8
holes
 62
7
100
AcDbPolyline
 90
8
 70
1
 10
0.012676
 20
16.913916
 30
0.0
 10
-0.976598
 20
16.503844
 30
0.0
 10
-1.386306
 20
15.514395
 30
0.0
 10
-0.976420
 20
14.525308
 30
0.0
 10
0.012676
 20
14.115386
 30
0.0
 10
1.002131
 20
14.525097
 30
0.0
 10
1.412215
 20
15.514395
 30
0.0
 10
1.002311
 20
16.504055
 30
0.0
  0
LWPOLYLINE
  5
108
100
AcDbEntity
  8
holes
 62
7
100
AcDbPolyline
 90
8
 70
1
 10
83.411550
 20
16.913916
 30
0.0
 10
82.422273
 20
16.503844
 30
0.0
 10
82.012565
 20
15.514395
 30
0.0
 10
82.422451
 20
14.525308
 30
0.0
 10
83.411550
 20
14.115386
 30
0.0
 10
84.401004
 20
14.525097
 30
0.0
 10
84.811086
 20
15.514395
 30
0.0
 10
84.401185
 20
16.504055
 30
0.0
  0
LWPOLYLINE
  5
109
100
AcDbEntity
  8
holes
 62
7
100
AcDbPolyline
 90
8
 70
1
 10
0.012676
 20
-49.672857
 30
0.0
 10
-0.976610
 20
-50.082960
 30
0.0
 10
-1.386306
 20
-51.072408
 30
0.0
 10
-0.976420
 20
-52.061496
 30
0.0
 10
0.012676
 20
-52.471418
 30
0.0
 10
1.002131
 20
-52.061706
 30
0.0
 10
1.412215
 20
-51.072408
 30
0.0
 10
1.002320
 20
-50.082749
 30
0.0
  0
LWPOLYLINE
  5
10a
100
AcDbEntity
  8
holes
 62
7
100
AcDbPolyline
 90
8
 70
1
 10
83.411550
 20
-49.672857
 30
0.0
 10
82.422261
 20
-50.082960
 30
0.0
 10
82.012565
 20
-51.072408
 30
0.0
 10
82.422451
 20
-52.061496
 30
0.0
 10
83.411550
 20
-52.471418
 30
0.0
 10
84.401004
 20
-52.061706
 30
0.0
 10
84.811086
 20
-51.072408
 30
0.0
 10
84.401191
 20
-50.082749
 30
0.0
  0
LWPOLYLINE
  5
10b
100
AcDbEntity
  8
circuitholes
 62
7
100
AcDbPolyline
 90
8
 70
1
 10
-40.099732
 20
48.469522
 30
0.0
 10
-41.089015
 20
48.059434
 30
0.0
 10
-41.498714
 20
47.069989
 30
0.0
 10
-41.088822
 20
46.080898
 30
0.0
 10
-40.099732
 20
45.671003
 30
0.0
 10
-39.110283
 20
46.080703
 30
0.0
 10
-38.700193
 20
47.069989
 30
0.0
 10
-39.110088
 20
48.059630
 30
0.0
  0
LWPOLYLINE
  5
10c
100
AcDbEntity
  8
circuitholes
 62
7
100
AcDbPolyline
 90
8
 70
1
 10
-6.987757
 20
50.262456
 30
0.0
 10
-7.977043
 20
49.852366
 30
0.0
 10
-8.386742
 20
48.862920
 30
0.0
 10
-7.976847
 20
47.873830
 30
0.0
 10
-6.987757
 20
47.463938
 30
0.0
 10
-5.998308
 20
47.873637
 30
0.0
 10
-5.588220
 20
48.862920
 30
0.0
 10
-5.998115
 20
49.852561
 30
0.0
  0
LWPOLYLINE
  5
10d
100
AcDbEntity
  8
circuitholes
 62
7
100
AcDbPolyline
 90
8
 70
1
 10
-11.452600
 20
-14.229720
 30
0.0
 10
-12.441888
 20
-14.639822
 30
0.0
 10
-12.851584
 20
-15.629271
 30
0.0
 10
-12.441688
 20
-16.618358
 30
0.0
 10
-11.452600
 20
-17.028250
 30
0.0
 10
-10.463154
 20
-16.618539
 30
0.0
 10
-10.053063
 20
-15.629271
 30
0.0
 10
-10.462958
 20
-14.639642
 30
0.0
  0
LWPOLYLINE
  5
10e
100
AcDbEntity
  8
vent
 62
7
100
AcDbPolyline
 90
8
 70
1
 10
37.188291
 20
92.849347
 30
0.0
 10
26.576294
 20
89.708522
 30
0.0
 10
26.576294
 20
71.090676
 30
0.0
 10
37.188291
 20
67.949851
 30
0.0
 10
37.188291
 20
75.344955
 30
0.0
 10
32.394370
 20
76.468332
 30
0.0
 10
32.394370
 20
84.518279
 30
0.0
 10
37.188291
 20
85.626222
 30
0.0
  0
LWPOLYLINE
  5
10f
100
AcDbEntity
  8
vent
 62
7
100
AcDbPolyline
 90
7
 70
1
 10
24.443091
 20
89.076829
 30
0.0
 10
8.145859
 20
84.253144
 30
0.0
 10
8.145859
 20
76.546054
 30
0.0
 10
24.443091
 20
71.722366
 30
0.0
 10
24.443091
 20
78.354588
 30
0.0
 10
15.674358
 20
80.477872
 30
0.0
 10
24.443091
 20
82.587371
 30
0.0
  0
LWPOLYLINE
  5
110
100
AcDbEntity
  8
vent
 62
7
100
AcDbPolyline
 90
8
 70
1
 10
46.970156
 20
65.741684
 30
0.0
 10
46.970156
 20
44.259167
 30
0.0
 10
54.142017
 20
44.259167
 30
0.0
 10
54.142017
 20
51.466860
 30
0.0
 10
63.105334
 20
51.466860
 30
0.0
 10
63.105334
 20
58.533991
 30
0.0
 10
54.142017
 20
58.533991
 30
0.0
 10
54.142017
 20
65.741684
 30
0.0
  0
LWPOLYLINE
  5
111
100
AcDbEntity
  8
vent
 62
7
100
AcDbPolyline
 90
4
 70
1
 10
8.145859
 20
65.703097
 30
0.0
 10
8.145859
 20
58.635961
 30
0.0
 10
24.443091
 20
58.635961
 30
0.0
 10
24.443091
 20
65.703097
 30
0.0
  0
LWPOLYLINE
  5
112
100
AcDbEntity
  8
vent
 62
7
100
AcDbPolyline
 90
6
 70
1
 10
26.576294
 20
65.703097
 30
0.0
 10
26.576294
 20
58.635961
 30
0.0
 10
30.036823
 20
58.635961
 30
0.0
 10
30.036823
 20
47.605594
 30
0.0
 10
37.188291
 20
47.605594
 30
0.0
 10
37.188291
 20
65.703097
 30
0.0
  0
LWPOLYLINE
  5
113
100
AcDbEntity
  8
vent
 62
7
100
AcDbPolyline
 90
4
 70
1
 10
65.238537
 20
58.533991
 30
0.0
 10
65.238537
 20
51.466860
 30
0.0
 10
76.012589
 20
51.466860
 30
0.0
 10
76.012589
 20
58.533991
 30
0.0
  0
LWPOLYLINE
  5
114
100
AcDbEntity
  8
vent
 62
7
100
AcDbPolyline
 90
8
 70
1
 10
37.188291
 20
46.669633
 30
0.0
 10
26.576294
 20
43.528806
 30
0.0
 10
26.576294
 20
24.910956
 30
0.0
 10
37.188291
 20
21.770138
 30
0.0
 10
37.188291
 20
29.165230
 30
0.0
 10
32.394370
 20
30.288616
 30
0.0
 10
32.394370
 20
38.338566
 30
0.0
 10
37.188291
 20
39.446509
 30
0.0
  0
LWPOLYLINE
  5
115
100
AcDbEntity
  8
vent
 62
7
100
AcDbPolyline
 90
7
 70
1
 10
24.443091
 20
42.897119
 30
0.0
 10
8.145859
 20
38.073427
 30
0.0
 10
8.145859
 20
30.366340
 30
0.0
 10
24.443091
 20
25.542658
 30
0.0
 10
24.443091
 20
32.174881
 30
0.0
 10
15.674358
 20
34.298149
 30
0.0
 10
24.443091
 20
36.407654
 30
0.0
  0
LWPOLYLINE
  5
116
100
AcDbEntity
  8
vent
 62
7
100
AcDbPolyline
 90
8
 70
1
 10
46.970156
 20
41.061015
 30
0.0
 10
46.970156
 20
22.120710
 30
0.0
 10
53.171332
 20
22.120710
 30
0.0
 10
53.171332
 20
33.977909
 30
0.0
 10
57.786651
 20
33.977909
 30
0.0
 10
57.786651
 20
22.978952
 30
0.0
 10
63.105334
 20
22.978952
 30
0.0
 10
63.105334
 20
41.061015
 30
0.0
  0
LWPOLYLINE
  5
117
100
AcDbEntity
  8
vent
 62
7
100
AcDbPolyline
 90
6
 70
1
 10
65.238537
 20
41.061015
 30
0.0
 10
65.238537
 20
33.977909
 30
0.0
 10
69.435490
 20
33.977909
 30
0.0
 10
69.435490
 20
21.777838
 30
0.0
 10
76.012589
 20
21.777838
 30
0.0
 10
76.012589
 20
41.061015
 30
0.0
  0
LWPOLYLINE
  5
118
100
AcDbEntity
  8
vent
 62
7
100
AcDbPolyline
 90
28
 70
1
 10
27.580057
 20
20.755884
 30
0.0
 10
27.312718
 20
17.394031
 30
0.0
 10
27.045378
 20
14.032179
 30
0.0
 10
28.877753
 20
13.700466
 30
0.0
 10
30.214865
 20
13.142524
 30
0.0
 10
31.537317
 20
11.816607
 30
0.0
 10
31.978204
 20
10.022637
 30
0.0
 10
31.755139
 20
8.684587
 30
0.0
 10
31.086337
 20
7.697607
 30
0.0
 10
30.105883
 20
7.077471
 30
0.0
 10
28.986758
 20
6.870779
 30
0.0
 10
27.916949
 20
7.066032
 30
0.0
 10
26.966003
 20
7.651308
 30
0.0
 10
26.769936
 20
7.852069
 30
0.0
 10
26.576294
 20
8.103315
 30
0.0
 10
26.576294
 20
4.083838
 30
0.0
 10
26.576294
 20
0.064362
 30
0.0
 10
27.150405
 20
0.021012
 30
0.0
 10
27.738807
 20
0.006563
 30
0.0
 10
30.423041
 20
0.310881
 30
0.0
 10
32.889362
 20
1.223655
 30
0.0
 10
34.964489
 20
2.682330
 30
0.0
 10
36.475017
 20
4.624621
 30
0.0
 10
37.381262
 20
7.093516
 30
0.0
 10
37.683280
 20
10.131823
 30
0.0
 10
36.970187
 20
15.069583
 30
0.0
 10
34.830741
 20
18.213207
 30
0.0
 10
31.591703
 20
19.972134
 30
0.0
  0
LWPOLYLINE
  5
119
100
AcDbEntity
  8
vent
 62
7
100
AcDbPolyline
 90
8
 70
1
 10
76.012589
 20
20.264224
 30
0.0
 10
65.238537
 20
17.075423
 30
0.0
 10
65.238537
 20
-1.446513
 30
0.0
 10
76.012589
 20
-4.635278
 30
0.0
 10
76.012589
 20
2.759817
 30
0.0
 10
71.218120
 20
3.883197
 30
0.0
 10
71.218120
 20
11.933138
 30
0.0
 10
76.012589
 20
13.041075
 30
0.0
  0
LWPOLYLINE
  5
11a
100
AcDbEntity
  8
vent
 62
7
100
AcDbPolyline
 90
36
 70
1
 10
16.149505
 20
19.898214
 30
0.0
 10
13.975345
 20
19.644608
 30
0.0
 10
11.929952
 20
18.883960
 30
0.0
 10
10.147138
 20
17.600705
 30
0.0
 10
8.800152
 20
15.810405
 30
0.0
 10
7.938259
 20
13.372848
 30
0.0
 10
7.650868
 20
10.178634
 30
0.0
 10
8.170987
 20
6.317292
 30
0.0
 10
9.731155
 20
3.501211
 30
0.0
 10
12.405582
 20
1.660099
 30
0.0
 10
16.308256
 20
0.755061
 30
0.0
 10
16.555751
 20
4.086036
 30
0.0
 10
16.803247
 20
7.417041
 30
0.0
 10
15.109537
 20
7.830515
 30
0.0
 10
13.950707
 20
8.540421
 30
0.0
 10
13.282183
 20
9.546577
 30
0.0
 10
13.059392
 20
10.880352
 30
0.0
 10
13.227521
 20
11.960713
 30
0.0
 10
13.732426
 20
12.736817
 30
0.0
 10
14.460707
 20
13.205110
 30
0.0
 10
15.337565
 20
13.361348
 30
0.0
 10
15.996209
 20
13.232625
 30
0.0
 10
16.585517
 20
12.846515
 30
0.0
 10
17.140006
 20
12.003822
 30
0.0
 10
17.654875
 20
10.474644
 30
0.0
 10
18.932884
 20
6.500202
 30
0.0
 10
20.230703
 20
3.844062
 30
0.0
 10
21.676808
 20
2.108614
 30
0.0
 10
23.439879
 20
0.927044
 30
0.0
 10
23.934171
 20
0.708611
 30
0.0
 10
24.443091
 20
0.519680
 30
0.0
 10
24.443091
 20
7.124072
 30
0.0
 10
24.443091
 20
13.728463
 30
0.0
 10
23.209846
 20
16.152473
 30
0.0
 10
21.755917
 20
17.901149
 30
0.0
 10
19.254820
 20
19.398917
 30
0.0
  0
LWPOLYLINE
  5
11b
100
AcDbEntity
  8
vent
 62
7
100
AcDbPolyline
 90
7
 70
1
 10
63.105334
 20
16.443757
 30
0.0
 10
46.970156
 20
11.668015
 30
0.0
 10
46.970156
 20
3.960925
 30
0.0
 10
63.105334
 20
-0.814817
 30
0.0
 10
63.105334
 20
5.809142
 30
0.0
 10
54.498108
 20
7.892740
 30
0.0
 10
63.105334
 20
9.963664
 30
0.0
  0
LWPOLYLINE
  5
11c
100
AcDbEntity
  8
vent
 62
7
100
AcDbPolyline
 90
8
 70
1
 10
8.145859
 20
-3.597362
 30
0.0
 10
8.145859
 20
-10.665020
 30
0.0
 10
19.121107
 20
-10.665020
 30
0.0
 10
8.145859
 20
-18.075558
 30
0.0
 10
8.145859
 20
-27.467161
 30
0.0
 10
19.101263
 20
-19.136112
 30
0.0
 10
24.443091
 20
-21.707510
 30
0.0
 10
24.443091
 20
-3.597362
 30
0.0
  0
LWPOLYLINE
  5
11d
100
AcDbEntity
  8
vent
 62
7
100
AcDbPolyline
 90
5
 70
1
 10
26.576294
 20
-3.597362
 30
0.0
 10
26.576294
 20
-13.312520
 30
0.0
 10
30.096355
 20
-10.665020
 30
0.0
 10
37.188291
 20
-10.665020
 30
0.0
 10
37.188291
 20
-3.597362
 30
0.0
  0
LWPOLYLINE
  5
11e
100
AcDbEntity
  8
vent
 62
7
100
AcDbPolyline
 90
7
 70
1
 10
46.970156
 20
-6.803768
 30
0.0
 10
46.970156
 20
-16.102230
 30
0.0
 10
63.105334
 20
-19.378627
 30
0.0
 10
63.105334
 20
-14.453541
 30
0.0
 10
53.864211
 20
-12.592078
 30
0.0
 10
63.105334
 20
-12.592078
 30
0.0
 10
63.105334
 20
-6.803768
 30
0.0
  0
LWPOLYLINE
  5
11f
100
AcDbEntity
  8
vent
 62
7
100
AcDbPolyline
 90
4
 70
1
 10
65.238537
 20
-6.803768
 30
0.0
 10
65.238537
 20
-12.592078
 30
0.0
 10
76.012589
 20
-12.592078
 30
0.0
 10
76.012589
 20
-6.803768
 30
0.0
  0
LWPOLYLINE
  5
120
100
AcDbEntity
  8
vent
 62
7
100
AcDbPolyline
 90
4
 70
1
 10
26.576294
 20
-14.854251
 30
0.0
 10
26.576294
 20
-22.733865
 30
0.0
 10
37.188291
 20
-27.841982
 30
0.0
 10
37.188291
 20
-19.136112
 30
0.0
  0
LWPOLYLINE
  5
121
100
AcDbEntity
  8
vent
 62
7
100
AcDbPolyline
 90
4
 70
1
 10
65.238537
 20
-14.883452
 30
0.0
 10
65.238537
 20
-24.458055
 30
0.0
 10
76.012589
 20
-22.280203
 30
0.0
 10
76.012589
 20
-17.053598
 30
0.0
  0
LWPOLYLINE
  5
122
100
AcDbEntity
  8
vent
 62
7
100
AcDbPolyline
 90
7
 70
1
 10
63.105334
 20
-20.000931
 30
0.0
 10
46.970156
 20
-23.263028
 30
0.0
 10
46.970156
 20
-32.530032
 30
0.0
 10
63.105334
 20
-32.530032
 30
0.0
 10
63.105334
 20
-26.757707
 30
0.0
 10
53.864211
 20
-26.757707
 30
0.0
 10
63.105334
 20
-24.889652
 30
0.0
  0
LWPOLYLINE
  5
123
100
AcDbEntity
  8
vent
 62
7
100
AcDbPolyline
 90
4
 70
1
 10
65.238537
 20
-26.757707
 30
0.0
 10
65.238537
 20
-32.530032
 30
0.0
 10
76.012589
 20
-32.530032
 30
0.0
 10
76.012589
 20
-26.757707
 30
0.0
  0
LWPOLYLINE
  5
124
100
AcDbEntity
  8
vent
 62
7
100
AcDbPolyline
 90
9
 70
1
 10
37.188291
 20
-27.904237
 30
0.0
 10
26.576294
 20
-31.045077
 30
0.0
 10
26.576294
 20
-49.662923
 30
0.0
 10
37.001979
 20
-52.748643
 30
0.0
 10
37.188291
 20
-52.748643
 30
0.0
 10
37.188291
 20
-45.408667
 30
0.0
 10
32.394370
 20
-44.285257
 30
0.0
 10
32.394370
 20
-36.235316
 30
0.0
 10
37.188291
 20
-35.127380
 30
0.0
  0
LWPOLYLINE
  5
125
100
AcDbEntity
  8
vent
 62
7
100
AcDbPolyline
 90
7
 70
1
 10
24.443091
 20
-31.676773
 30
0.0
 10
8.145859
 20
-36.500440
 30
0.0
 10
8.145859
 20
-44.207560
 30
0.0
 10
24.443091
 20
-49.031227
 30
0.0
 10
24.443091
 20
-42.398448
 30
0.0
 10
15.674358
 20
-40.275745
 30
0.0
 10
24.443091
 20
-38.166198
 30
0.0
  0
LWPOLYLINE
  5
126
100
AcDbEntity
  8
rj45
 62
7
100
AcDbPolyline
 90
4
 70
1
 10
0.000000
 20
317.895111
 30
0.0
 10
10.465741
 20
317.895111
 30
0.0
 10
10.465741
 20
304.763152
 30
0.0
 10
0.000000
 20
304.763152
 30
0.0
  0
LWPOLYLINE
  5
127
100
AcDbEntity
  8
rj45
 62
7
100
AcDbPolyline
 90
4
 70
1
 10
-30.482201
 20
-14.783899
 30
0.0
 10
-20.670569
 20
-14.783899
 30
0.0
 10
-20.670569
 20
-27.095111
 30
0.0
 10
-30.482201
 20
-27.095111
 30
0.0
  0
LWPOLYLINE
  5
128
100
AcDbEntity
  8
insert
 62
7
100
AcDbPolyline
 90
4
 70
1
 10
-33.228360
 20
82.369089
 30
0.0
 10
-33.228360
 20
51.499378
 30
0.0
 10
-15.571832
 20
51.499378
 30
0.0
 10
-15.571832
 20
82.369089
 30
0.0
  0
LWPOLYLINE
  5
129
100
AcDbEntity
  8
insert
 62
7
100
AcDbPolyline
 90
4
 70
1
 10
-35.224311
 20
-13.380855
 30
0.0
 10
-35.224311
 20
-40.875471
 30
0.0
 10
-16.410782
 20
-40.875471
 30
0.0
 10
-16.410782
 20
-13.380855
 30
0.0
  0
LWPOLYLINE
  5
12a
100
AcDbEntity
  8
insert
 62
7
100
AcDbPolyline
 90
4
 70
1
 10
77.310146
 20
77.925743
 30
0.0
 10
77.310146
 20
35.129385
 30
0.0
 10
103.541382
 20
35.129385
 30
0.0
 10
103.541382
 20
77.925743
 30
0.0
  0
LWPOLYLINE
  5
12b
100
AcDbEntity
  8
insert
 62
7
100
AcDbPolyline
 90
4
 70
1
 10
77.310146
 20
3.636256
 30
0.0
 10
77.310146
 20
-39.160644
 30
0.0
 10
103.541382
 20
-39.160644
 30
0.0
 10
103.541382
 20
3.636256
 30
0.0
  0
LWPOLYLINE
  5
12c
100
AcDbEntity
  8
circuit
 62
7
100
AcDbPolyline
 90
4
 70
1
 10
-35.331245
 20
53.914258
 30
0.0
 10
-35.331245
 20
4.963017
 30
0.0
 10
-13.468947
 20
4.963017
 30
0.0
 10
-13.468947
 20
53.914258
 30
0.0
  0
LWPOLYLINE
  5
12d
100
AcDbEntity
  8
circuit
 62
7
100
AcDbPolyline
 90
4
 70
1
 10
-52.595310
 20
1.983172
 30
0.0
 10
-52.595310
 20
-15.792975
 30
0.0
 10
-15.921300
 20
-15.792975
 30
0.0
 10
-15.921300
 20
1.983172
 30
0.0
  0
LWPOLYLINE
  5
12e
100
AcDbEntity
  8
Layer_1
 62
1
100
AcDbPolyline
 90
12
 70
1
 10
33.745840
 20
362.529952
 30
0.0
 10
12.673248
 20
362.529952
 30
0.0
 10
8.007174
 20
362.529952
 30
0.0
 10
8.007174
 20
361.236426
 30
0.0
 10
8.007174
 20
349.194944
 30
0.0
 10
8.007174
 20
344.891078
 30
0.0
 10
9.662877
 20
344.891078
 30
0.0
 10
30.735470
 20
344.891078
 30
0.0
 10
35.401544
 20
344.891078
 30
0.0
 10
35.401544
 20
346.184574
 30
0.0
 10
35.401544
 20
358.226056
 30
0.0
 10
35.401544
 20
362.529952
 30
0.0
  0
LWPOLYLINE
  5
12f
100
AcDbEntity
  8
Layer_1
 62
1
100
AcDbPolyline
 90
3
 70
0
 10
7.988329
 20
362.644045
 30
0.0
 10
7.988329
 20
362.644045
 30
0.0
 10
7.988359
 20
362.643443
 30
0.0
  0
LWPOLYLINE
  5
130
100
AcDbEntity
  8
Layer_1
 62
1
100
AcDbPolyline
 90
28
 70
0
 10
7.988359
 20
362.643563
 30
0.0
 10
7.998022
 20
362.539073
 30
0.0
 10
7.998022
 20
362.539073
 30
0.0
 10
8.157692
 20
362.529952
 30
0.0
 10
32.240655
 20
362.529952
 30
0.0
 10
35.401544
 20
362.529952
 30
0.0
 10
35.481349
 20
362.609757
 30
0.0
 10
35.481349
 20
362.609757
 30
0.0
 10
35.401544
 20
362.529922
 30
0.0
 10
35.401544
 20
361.236426
 30
0.0
 10
35.401544
 20
349.194944
 30
0.0
 10
35.401544
 20
344.891078
 30
0.0
 10
35.481349
 20
344.811273
 30
0.0
 10
35.481349
 20
344.811273
 30
0.0
 10
35.401514
 20
344.891048
 30
0.0
 10
35.251025
 20
344.891078
 30
0.0
 10
11.168062
 20
344.891078
 30
0.0
 10
8.007174
 20
344.891048
 30
0.0
 10
7.927369
 20
344.811273
 30
0.0
 10
7.927369
 20
344.811273
 30
0.0
 10
8.007174
 20
344.891108
 30
0.0
 10
8.007174
 20
346.184574
 30
0.0
 10
8.007174
 20
358.226056
 30
0.0
 10
8.006150
 20
362.530975
 30
0.0
 10
7.923275
 20
362.531578
 30
0.0
 10
7.922823
 20
362.607017
 30
0.0
 10
7.922823
 20
362.607017
 30
0.0
 10
7.988329
 20
362.644045
 30
0.0
  0
LWPOLYLINE
  5
131
100
AcDbEntity
  8
Layer_1
 62
7
100
AcDbPolyline
 90
4
 70
1
 10
0.330729
 20
318.032915
 30
0.0
 10
0.330729
 20
318.032915
 30
0.0
 10
0.330729
 20
318.032915
 30
0.0
 10
0.330729
 20
318.032915
 30
0.0
  0
LWPOLYLINE
  5
132
100
AcDbEntity
  8
sensors
 62
7
100
AcDbPolyline
 90
4
 70
1
 10
-47.379226
 20
39.814701
 30
0.0
 10
-37.398421
 20
39.814701
 30
0.0
 10
-37.398421
 20
20.735133
 30
0.0
 10
-47.379226
 20
20.735133
 30
0.0
  0
ENDSEC
  0
SECTION
  2
OBJECTS
  0
DICTIONARY
  5
C
330
0
100
AcDbDictionary
  3
ACAD_GROUP
350
D
  3
ACAD_MLINESTYLE
350
17
  0
DICTIONARY
  5
D
330
C
100
AcDbDictionary
  0
DICTIONARY
  5
1A
330
C
100
AcDbDictionary
  0
DICTIONARY
  5
17
330
C
100
AcDbDictionary
  3
STANDARD
350
18
  0
DICTIONARY
  5
19
330
C
100
AcDbDictionary
  0
ENDSEC
  0
EOF
