0
SECTION
2
HEADER
9
$INSUNITS
70
1
9
$ACADVER
1
AC1014
9
$HANDSEED
5
FFFF
0
ENDSEC
0
SECTION
2
TABLES
0
TABLE
2
VPORT
5
8
100
AcDbSymbolTable
0
ENDTAB
0
TABLE
2
LTYPE
5
5
100
AcDbSymbolTable
0
LTYPE
5
14
100
AcDbSymbolTableRecord
100
AcDbLinetypeTableRecord
2
BYBLOCK
70
0
0
LTYPE
5
15
100
AcDbSymbolTableRecord
100
AcDbLinetypeTableRecord
2
BYLAYER
70
0
0
ENDTAB
0
TABLE
2
LAYER
5
2
100
AcDbSymbolTable
70
2
0
LAYER
5
50
100
AcDbSymbolTableRecord
100
AcDbLayerTableRecord
2
0
70
0
6
CONTINUOUS
0
ENDTAB
0
TABLE
2
STYLE
5
3
100
AcDbSymbolTable
70
1
0
STYLE
5
11
100
AcDbSymbolTableRecord
100
AcDbTextStyleTableRecord
2
STANDARD
70
0
0
ENDTAB
0
TABLE
2
VIEW
5
6
100
AcDbSymbolTable
70
0
0
ENDTAB
0
TABLE
2
UCS
5
7
100
AcDbSymbolTable
70
0
0
ENDTAB
0
TABLE
2
APPID
5
9
100
AcDbSymbolTable
70
2
0
APPID
5
12
100
AcDbSymbolTableRecord
100
AcDbRegAppTableRecord
2
ACAD
70
0
0
ENDTAB
0
TABLE
2
DIMSTYLE
5
A
100
AcDbSymbolTable
70
1
0
ENDTAB
0
TABLE
2
BLOCK_RECORD
5
1
100
AcDbSymbolTable
70
1
0
BLOCK_RECORD
5
1F
100
AcDbSymbolTableRecord
100
AcDbBlockTableRecord
2
*MODEL_SPACE
0
BLOCK_RECORD
5
1B
100
AcDbSymbolTableRecord
100
AcDbBlockTableRecord
2
*PAPER_SPACE
0
ENDTAB
0
ENDSEC
0
SECTION
2
BLOCKS
0
BLOCK
5
20
100
AcDbEntity
100
AcDbBlockBegin
2
*MODEL_SPACE
0
ENDBLK
5
21
100
AcDbEntity
100
AcDbBlockEnd
0
BLOCK
5
1C
100
AcDbEntity
100
AcDbBlockBegin
2
*PAPER_SPACE
0
ENDBLK
5
1D
100
AcDbEntity
100
AcDbBlockEnd
0
ENDSEC
0
SECTION
2
ENTITIES
0
LWPOLYLINE
5
100
100
AcDbEntity
8
OUTER_PROFILES
100
AcDbPolyline
90
30
70
1
43
0.0
10
-1.2432931355556214
20
1.5943536586222395
10
-0.61024134841572697
20
1.8480843165114995
10
-0.61023217313588463
20
1.8480771069485085
10
-0.59976211992048833
20
1.8398501635225142
10
-0.54563763319134506
20
1.8366642958664052
10
-0.044526510049327117
20
1.8366642958664052
10
-0.044526510049327117
20
1.7972942171262483
10
1.5518644986728959e-12
20
1.7972942171262483
10
1.5518644986728959e-12
20
4.5811470678332844
10
5.826771653541754
20
4.5811470678332844
10
5.826771653541754
20
1.7972942171262483
10
5.8712981635930683
20
1.7972942171262483
10
5.8712981635930683
20
1.8366642958664057
10
6.3724092867350537
20
1.8366642958664057
10
6.4265337734642216
20
1.8398501635224891
10
6.4370038266771834
20
1.8480771069465627
10
6.4370130019561005
20
1.8480843165095555
10
7.070064789101755
20
1.5943536586179801
10
7.0700772764386626
20
1.5943377665587424
10
8.0587726003810989
20
0.33607061684313766
10
7.737411554653173
20
0.083558133083021
10
7.7378445478354694
20
0.083007082537781093
10
5.826771653541754
20
0.083007082537781093
10
5.8267716535433065
20
0
10
0
20
0
10
1.5518644986728959e-12
20
0.083007082537781093
10
-1.9110728942917607
20
0.083007082537781093
10
-1.9106399011094517
20
0.083558133083037084
10
-2.2320009468373789
20
0.33607061684315809
10
-1.2433056228916048
20
1.5943377665630027
0
CIRCLE
5
101
100
AcDbEntity
8
INTERIOR_PROFILES
100
AcDbCircle
10
4.3897637795291109
20
0.45871153997296998
30
0
40
0.098425196856199021
0
CIRCLE
5
102
100
AcDbEntity
8
INTERIOR_PROFILES
100
AcDbCircle
10
1.4370078740173
20
0.45871153997294078
30
0
40
0.098425196848766466
0
LINE
5
103
100
AcDbEntity
8
BEND
100
AcDbLine
10
0
20
0.062032935340020794
30
3.1931494989988343e-18
11
5.8267716535433065
21
0.062032935340020794
31
2.7318479936642629e-18
0
LINE
5
104
100
AcDbEntity
8
BEND
100
AcDbLine
10
5.8267716535417557
20
2.3551846849067801
30
-3.3648675240770752e-15
11
1.5518644986728959e-12
21
2.3551846849067801
31
-3.4364936402721891e-15
0
LINE
5
105
100
AcDbEntity
8
BEND
100
AcDbLine
10
7.7626563599846454
20
0.10339447784550625
30
-9.1171626062150825e-11
11
6.3994715300996399
21
1.838257229694447
31
-2.6970406988225873e-11
0
LINE
5
106
100
AcDbEntity
8
BEND
100
AcDbLine
10
-0.57269987655592025
20
1.8382572296944601
30
1.3413373648891531e-15
11
-1.9358847064409246
21
0.10339447784551989
31
3.7734015782477741e-15
0
LINE
5
107
100
AcDbEntity
8
BEND
100
AcDbLine
10
5.8490349085681883
20
0.083007082537781093
30
-1.048499595902431e-12
11
5.8490349085681883
21
1.7972942171262487
31
-1.0483575398067603e-12
0
LINE
5
108
100
AcDbEntity
8
BEND
100
AcDbLine
10
5.8267716535417557
20
1.8195574721516878
30
-6.8296199841606568e-17
11
1.5518644986728959e-12
21
1.8195574721516878
31
2.1035229551214823e-16
0
LINE
5
109
100
AcDbEntity
8
BEND
100
AcDbLine
10
-0.022263255023888325
20
1.7972942171262483
30
7.3759895828935097e-17
11
-0.022263255023888325
21
0.083007082537780399
31
2.1035229551214823e-16
0
LINE
5
110
100
AcDbEntity
8
BEND_EXTENT
100
AcDbLine
10
-1.9533903279133968
20
0.11714968562985466
30
3.499497279883921e-15
11
-0.59976211992048833
21
1.8398501635225142
31
2.7318479936642629e-18
0
LINE
5
111
100
AcDbEntity
8
BEND_EXTENT
100
AcDbLine
10
1.5518644986728959e-12
20
2.36802316197145
30
-3.3191953123020796e-15
11
5.8267716535417557
21
2.36802316197145
31
-3.3191953123020796e-15
0
LINE
5
112
100
AcDbEntity
8
BEND_EXTENT
100
AcDbLine
10
5.826771653541754
20
2.3423462078421102
30
-3.1443570407075666e-15
11
1.5518644986728959e-12
21
2.3423462078421102
31
-3.1443570407075666e-15
0
LINE
5
113
100
AcDbEntity
8
BEND_EXTENT
100
AcDbLine
10
1.5518644986728959e-12
20
1.8418207271771276
30
-3.4694469519536137e-16
11
5.8267716535417557
21
1.8418207271771276
31
-3.4694469519536137e-16
0
LINE
5
114
100
AcDbEntity
8
BEND_EXTENT
100
AcDbLine
10
5.826771653541754
20
1.7972942171262483
30
2.7318479936642629e-18
11
1.5518644986728959e-12
21
1.7972942171262483
31
2.7318479936642629e-18
0
LINE
5
115
100
AcDbEntity
8
BEND_EXTENT
100
AcDbLine
10
1.5518644986728959e-12
20
1.7972942171262483
30
2.7318479936642629e-18
11
1.5518644986728959e-12
21
0.083007082537781093
31
-6.8296199841606568e-17
0
LINE
5
116
100
AcDbEntity
8
BEND_EXTENT
100
AcDbLine
10
5.826771653541754
20
0.083007082537781093
30
-6.8296199841606568e-17
11
5.826771653541754
21
1.7972942171262483
31
2.7318479936642629e-18
0
LINE
5
117
100
AcDbEntity
8
BEND_EXTENT
100
AcDbLine
10
5.8712981635930683
20
1.7972942171262483
30
-2.0970074976565932e-12
11
5.8712981635930683
21
0.083007082537781093
31
-2.0970074976565932e-12
0
LINE
5
118
100
AcDbEntity
8
BEND_EXTENT
100
AcDbLine
10
-0.044526510049327117
20
0.083007082537780399
30
7.0208493437171554e-16
11
-0.044526510049327117
21
1.7972942171262483
31
7.0208493437171554e-16
0
LINE
5
119
100
AcDbEntity
8
BEND_EXTENT
100
AcDbLine
10
-0.54563763319134506
20
1.8366642958664052
30
2.7318479936642629e-18
11
-1.918379084968451
21
0.089639270061184412
31
4.1988503662619723e-15
0
LINE
5
120
100
AcDbEntity
8
BEND_EXTENT
100
AcDbLine
10
7.7451507385121721
20
0.089639270061168327
30
-9.0348723144246078e-11
11
6.3724092867350537
21
1.8366642958664057
31
2.7318479936642629e-18
0
LINE
5
121
100
AcDbEntity
8
BEND_EXTENT
100
AcDbLine
10
5.8267716535433065
20
0.050901307827301401
30
-1.3659239968321315e-18
11
0
21
0.050901307827301401
31
-1.3659239968321315e-18
0
LINE
5
122
100
AcDbEntity
8
BEND_EXTENT
100
AcDbLine
10
0
20
0.073164562852741241
30
2.7318479936642629e-18
11
5.8267716535433065
21
0.073164562852740894
31
2.7318479936642629e-18
0
ENDSEC
0
SECTION
2
OBJECTS
0
DICTIONARY
5
C
100
AcDbDictionary
3
ACAD_GROUP
350
D
3
ACAD_MLINESTYLE
350
17
0
DICTIONARY
5
D
100
AcDbDictionary
0
DICTIONARY
5
1A
330
C
100
AcDbDictionary
0
DICTIONARY
5
17
100
AcDbDictionary
0
ENDSEC
0
EOF
