<?xml version="1.0" encoding="UTF-8" standalone="no"?>
<!-- Created with Inkscape (http://www.inkscape.org/) -->

<svg
   xmlns:dc="http://purl.org/dc/elements/1.1/"
   xmlns:cc="http://creativecommons.org/ns#"
   xmlns:rdf="http://www.w3.org/1999/02/22-rdf-syntax-ns#"
   xmlns:svg="http://www.w3.org/2000/svg"
   xmlns="http://www.w3.org/2000/svg"
   xmlns:sodipodi="http://sodipodi.sourceforge.net/DTD/sodipodi-0.dtd"
   xmlns:inkscape="http://www.inkscape.org/namespaces/inkscape"
   version="1.1"
   id="svg2"
   width="30cm"
   height="22cm"
   viewBox="0 0 1133.8583 831.49606"
   sodipodi:docname="marker25_6_7_backright.svg"
   inkscape:version="0.92.3 (2405546, 2018-03-11)">
  <metadata
     id="metadata8">
    <rdf:RDF>
      <cc:Work
         rdf:about="">
        <dc:format>image/svg+xml</dc:format>
        <dc:type
           rdf:resource="http://purl.org/dc/dcmitype/StillImage" />
        <dc:title />
      </cc:Work>
    </rdf:RDF>
  </metadata>
  <defs
     id="defs6" />
  <sodipodi:namedview
     pagecolor="#ffffff"
     bordercolor="#666666"
     borderopacity="1"
     objecttolerance="10"
     gridtolerance="10"
     guidetolerance="10"
     inkscape:pageopacity="0"
     inkscape:pageshadow="2"
     inkscape:window-width="2771"
     inkscape:window-height="1909"
     id="namedview4"
     showgrid="false"
     inkscape:zoom="0.96396528"
     inkscape:cx="529.58339"
     inkscape:cy="415.74803"
     inkscape:window-x="67"
     inkscape:window-y="224"
     inkscape:window-maximized="0"
     inkscape:current-layer="svg2"
     units="cm"
     inkscape:document-units="cm" />
  <path
     style="fill:#000000;stroke:none;stroke-width:1.29583824"
     d="M 75.589844 75.589844 L 75.589844 415.74805 L 75.589844 755.90625 L 415.74805 755.90625 L 755.90625 755.90625 L 755.90625 415.74805 L 755.90625 75.589844 L 415.74805 75.589844 L 75.589844 75.589844 z M 869.29102 75.589844 L 869.29102 170.07812 L 869.29102 264.56641 L 963.7793 264.56641 L 1058.2676 264.56641 L 1058.2676 170.07812 L 1058.2676 75.589844 L 963.7793 75.589844 L 869.29102 75.589844 z M 896.28711 102.58789 L 909.78711 102.58789 L 923.28516 102.58789 L 923.28516 116.08594 L 923.28516 129.58398 L 950.28125 129.58398 L 977.27734 129.58398 L 977.27734 143.08203 L 977.27734 156.58008 L 1004.2754 156.58008 L 1031.2715 156.58008 L 1031.2715 197.07617 L 1031.2715 237.57031 L 1004.2754 237.57031 L 977.27734 237.57031 L 977.27734 224.07227 L 977.27734 210.57422 L 963.7793 210.57422 L 950.28125 210.57422 L 950.28125 224.07227 L 950.28125 237.57031 L 936.7832 237.57031 L 923.28516 237.57031 L 923.28516 210.57422 L 923.28516 183.57617 L 909.78711 183.57617 L 896.28711 183.57617 L 896.28711 170.07812 L 896.28711 156.58008 L 909.78711 156.58008 L 923.28516 156.58008 L 923.28516 143.08203 L 923.28516 129.58398 L 909.78711 129.58398 L 896.28711 129.58398 L 896.28711 116.08594 L 896.28711 102.58789 z M 923.28516 156.58008 L 923.28516 170.07812 L 923.28516 183.57617 L 936.7832 183.57617 L 950.28125 183.57617 L 950.28125 170.07812 L 950.28125 156.58008 L 936.7832 156.58008 L 923.28516 156.58008 z M 977.27734 210.57422 L 990.77539 210.57422 L 1004.2754 210.57422 L 1004.2754 197.07617 L 1004.2754 183.57617 L 990.77539 183.57617 L 977.27734 183.57617 L 977.27734 197.07617 L 977.27734 210.57422 z M 367.1543 172.7793 L 512.93555 172.7793 L 658.7168 172.7793 L 658.7168 221.37305 L 658.7168 269.9668 L 610.12305 269.9668 L 561.5293 269.9668 L 561.5293 318.56055 L 561.5293 367.1543 L 610.12305 367.1543 L 658.7168 367.1543 L 658.7168 464.3418 L 658.7168 561.5293 L 610.12305 561.5293 L 561.5293 561.5293 L 561.5293 610.12305 L 561.5293 658.7168 L 464.3418 658.7168 L 367.1543 658.7168 L 367.1543 610.12305 L 367.1543 561.5293 L 269.9668 561.5293 L 172.7793 561.5293 L 172.7793 464.3418 L 172.7793 367.1543 L 221.37305 367.1543 L 269.9668 367.1543 L 269.9668 318.56055 L 269.9668 269.9668 L 318.56055 269.9668 L 367.1543 269.9668 L 367.1543 221.37305 L 367.1543 172.7793 z M 269.9668 367.1543 L 269.9668 415.74805 L 269.9668 464.3418 L 318.56055 464.3418 L 367.1543 464.3418 L 367.1543 415.74805 L 367.1543 367.1543 L 318.56055 367.1543 L 269.9668 367.1543 z M 561.5293 367.1543 L 512.93555 367.1543 L 464.3418 367.1543 L 464.3418 415.74805 L 464.3418 464.3418 L 512.93555 464.3418 L 561.5293 464.3418 L 561.5293 415.74805 L 561.5293 367.1543 z M 963.77734 566.92969 A 94.488277 94.488294 0 0 0 869.29102 661.41797 A 94.488277 94.488294 0 0 0 963.77734 755.90625 A 94.488277 94.488294 0 0 0 1058.2676 661.41797 A 94.488277 94.488294 0 0 0 963.77734 566.92969 z M 963.77734 574.81836 C 1011.7353 574.81837 1050.3809 613.46003 1050.3809 661.41797 C 1050.3809 709.37591 1011.7353 748.01952 963.77734 748.01953 C 915.81942 748.01952 877.17773 709.37591 877.17773 661.41797 C 877.17773 613.46003 915.81942 574.81836 963.77734 574.81836 z M 903.94141 625.7793 L 893.72656 652.95508 L 902.31055 652.95508 L 903.625 648.46875 L 913.19141 648.46875 L 914.52734 652.95508 L 923.31055 652.95508 L 913.09766 625.7793 L 903.94141 625.7793 z M 925.74219 625.7793 L 925.74219 652.95508 L 933.30469 652.95508 L 933.30469 625.7793 L 925.74219 625.7793 z M 986.72656 625.7793 L 986.72656 652.95508 L 994.43945 652.95508 L 994.43945 647.83789 L 997.27539 645.05859 L 1001.2598 652.95508 L 1009.7695 652.95508 L 1002.3008 640.16406 L 1009.3613 633.26953 L 1000.0742 633.26953 L 994.43945 639.79297 L 994.43945 625.7793 L 986.72656 625.7793 z M 908.42773 632.82227 L 911.42969 642.5918 L 905.44336 642.5918 L 908.42773 632.82227 z M 948.00391 632.82227 C 946.5951 632.82227 945.28528 632.92855 944.07422 633.13867 C 942.86313 633.34876 941.91079 633.64425 941.21875 634.02734 C 940.25482 634.55874 939.51513 635.19078 938.99609 635.91992 C 938.48942 636.63667 938.09999 637.62427 937.82812 638.88477 L 945.03906 639.64453 C 945.33566 638.79181 945.72506 638.21129 946.20703 637.90234 C 946.82492 637.50689 947.75053 637.30859 948.98633 637.30859 C 949.95024 637.30859 950.62471 637.4945 951.00781 637.86523 C 951.3909 638.23597 951.58203 638.88565 951.58203 639.8125 C 950.64283 640.18323 949.75246 640.48395 948.91211 640.71875 C 948.07177 640.9412 946.23818 641.33778 943.4082 641.90625 C 941.04783 642.37585 939.42625 643.09271 938.54883 644.05664 C 937.67141 645.02056 937.23437 646.24882 937.23438 647.74414 C 937.23438 649.33833 937.83969 650.68006 939.05078 651.76758 C 940.27423 652.85508 942.06018 653.39844 944.4082 653.39844 C 946.17539 653.39844 947.72393 653.12773 949.05859 652.58398 C 950.03488 652.17615 951.01918 651.49648 952.00781 650.54492 C 952.09431 651.11339 952.18108 651.53477 952.26758 651.80664 C 952.35408 652.06616 952.53998 652.44839 952.82422 652.95508 L 959.9043 652.95508 C 959.50885 652.13943 959.24857 651.47021 959.125 650.95117 C 959.0138 650.41978 958.95898 649.69249 958.95898 648.76562 L 958.95898 640.07031 C 958.95898 639.14347 958.77503 638.17546 958.4043 637.16211 C 958.03355 636.13638 957.52544 635.34321 956.88281 634.78711 C 955.96832 633.98384 954.82487 633.4581 953.45312 633.21094 C 952.08138 632.95144 950.26542 632.82227 948.00391 632.82227 z M 972.58398 632.82227 C 970.35954 632.82227 968.58598 633.05775 967.26367 633.52734 C 965.94136 633.9846 964.90423 634.68385 964.15039 635.62305 C 963.39656 636.56226 963.01758 637.67895 963.01758 638.97656 C 963.01758 640.16292 963.3646 641.2216 964.05664 642.14844 C 964.76105 643.0753 965.61944 643.73541 966.63281 644.13086 C 967.65851 644.51395 969.48167 644.93339 972.10156 645.39062 C 973.8564 645.69958 974.93788 645.9618 975.3457 646.17188 C 975.91418 646.46846 976.19922 646.88791 976.19922 647.43164 C 976.19921 647.9136 975.98333 648.31347 975.55078 648.63477 C 974.99468 649.06732 974.20866 649.28516 973.19531 649.28516 C 972.26847 649.28517 971.52877 649.09209 970.97266 648.70898 C 970.41655 648.32589 969.98278 647.69054 969.67383 646.80078 L 962.18555 647.50586 C 962.61809 649.39665 963.59324 650.8532 965.11328 651.87891 C 966.64567 652.90462 969.21046 653.41797 972.80664 653.41797 C 975.35239 653.41797 977.35947 653.10293 978.83008 652.47266 C 980.31304 651.83005 981.39452 650.96968 982.07422 649.89453 C 982.76627 648.81939 983.11328 647.71506 983.11328 646.57812 C 983.11328 645.45355 982.78583 644.42164 982.13086 643.48242 C 981.48823 642.54322 980.55547 641.81918 979.33203 641.3125 C 978.10859 640.80582 976.24109 640.41314 973.73242 640.12891 C 972.07643 639.93118 971.00018 639.70614 970.50586 639.45898 C 970.01155 639.21183 969.76562 638.84917 969.76562 638.36719 C 969.76562 637.93467 969.95674 637.57003 970.33984 637.27344 C 970.73528 636.96449 971.36018 636.81055 972.21289 636.81055 C 973.05324 636.81055 973.7701 637.00492 974.36328 637.40039 C 974.79581 637.69697 975.10369 638.16076 975.28906 638.79102 L 982.44531 638.08789 C 981.951 636.80266 981.32611 635.78312 980.57227 635.0293 C 979.83079 634.27545 978.89802 633.71972 977.77344 633.36133 C 976.66122 633.00295 974.932 632.82225 972.58398 632.82227 z M 1021.9297 632.82227 C 1020.521 632.82227 1019.209 632.92855 1017.998 633.13867 C 1016.787 633.34876 1015.8366 633.64425 1015.1445 634.02734 C 1014.1806 634.55874 1013.4411 635.19078 1012.9219 635.91992 C 1012.4153 636.63667 1012.0257 637.62427 1011.7539 638.88477 L 1018.9648 639.64453 C 1019.2611 638.79181 1019.6509 638.21129 1020.1328 637.90234 C 1020.7507 637.50689 1021.6762 637.30859 1022.9121 637.30859 C 1023.8761 637.30859 1024.5485 637.4945 1024.9316 637.86523 C 1025.3147 638.23597 1025.5059 638.88565 1025.5059 639.8125 C 1024.5667 640.18323 1023.6782 640.48395 1022.8379 640.71875 C 1021.9975 640.9412 1020.1621 641.33778 1017.332 641.90625 C 1014.9717 642.37585 1013.352 643.09271 1012.4746 644.05664 C 1011.5972 645.02056 1011.1602 646.24882 1011.1602 647.74414 C 1011.1602 649.33833 1011.7655 650.68006 1012.9766 651.76758 C 1014.2 652.85508 1015.9859 653.39844 1018.334 653.39844 C 1020.1012 653.39844 1021.6519 653.12773 1022.9863 652.58398 C 1023.9626 652.17615 1024.9449 651.49648 1025.9336 650.54492 C 1026.0206 651.11339 1026.1049 651.53477 1026.1914 651.80664 C 1026.2784 652.06616 1026.4659 652.44839 1026.75 652.95508 L 1033.8301 652.95508 C 1033.4346 652.13943 1033.1745 651.47021 1033.0508 650.95117 C 1032.9397 650.41978 1032.8848 649.69249 1032.8848 648.76562 L 1032.8848 640.07031 C 1032.8848 639.14347 1032.7008 638.17546 1032.3301 637.16211 C 1031.9593 636.13638 1031.4513 635.34321 1030.8086 634.78711 C 1029.8941 633.98384 1028.7507 633.4581 1027.3789 633.21094 C 1026.0072 632.95144 1024.1913 632.82227 1021.9297 632.82227 z M 951.58203 643.61328 L 951.58203 644.81641 C 951.58203 645.75562 951.42613 646.52204 951.11719 647.11523 C 950.82058 647.69605 950.3092 648.19179 949.58008 648.59961 C 948.86331 649.00742 948.08449 649.20898 947.24414 649.20898 C 946.44086 649.20898 945.82837 649.02503 945.4082 648.6543 C 945.00039 648.27119 944.79687 647.78263 944.79688 647.18945 C 944.79688 646.67041 945.00755 646.20664 945.42773 645.79883 C 945.83554 645.40337 946.80549 645.00352 948.33789 644.5957 C 949.46247 644.31147 950.54395 643.98402 951.58203 643.61328 z M 1025.5059 643.61328 L 1025.5059 644.81641 C 1025.5059 645.75562 1025.3518 646.52204 1025.043 647.11523 C 1024.7463 647.69605 1024.235 648.19179 1023.5059 648.59961 C 1022.7891 649.00742 1022.0101 649.20898 1021.1699 649.20898 C 1020.3665 649.20898 1019.7542 649.02503 1019.334 648.6543 C 1018.9261 648.27119 1018.7227 647.78263 1018.7227 647.18945 C 1018.7227 646.67041 1018.9332 646.20664 1019.3535 645.79883 C 1019.7614 645.40337 1020.7312 645.00352 1022.2637 644.5957 C 1023.3882 644.31147 1024.4677 643.98402 1025.5059 643.61328 z M 908.35352 669.4375 L 908.35352 676.14648 L 916.91602 676.14648 L 916.91602 696.61133 L 925.31445 696.61133 L 925.31445 676.14648 L 933.87891 676.14648 L 933.87891 669.4375 L 908.35352 669.4375 z M 945.11133 676.48242 C 941.63874 676.48242 938.91478 677.43476 936.9375 679.33789 C 934.9726 681.24103 933.99023 683.7295 933.99023 686.80664 C 933.99023 688.96928 934.4788 690.8544 935.45508 692.46094 C 936.44372 694.05512 937.68437 695.22141 939.17969 695.96289 C 940.67501 696.69201 942.72841 697.05859 945.33594 697.05859 C 948.33895 697.05859 950.64345 696.632 952.25 695.7793 C 953.85653 694.91425 955.22829 693.49289 956.36523 691.51562 L 948.93164 690.83008 C 948.46202 691.42326 948.02109 691.83552 947.61328 692.07031 C 946.94594 692.44106 946.24343 692.62695 945.50195 692.62695 C 944.32796 692.62695 943.3756 692.20233 942.64648 691.34961 C 942.12744 690.75644 941.79999 689.85171 941.66406 688.64062 L 956.78906 688.64062 L 956.78906 687.78906 C 956.78906 685.19389 956.36246 683.08767 955.50977 681.46875 C 954.65706 679.84986 953.41837 678.61443 951.78711 677.76172 C 950.15586 676.90903 947.92897 676.48242 945.11133 676.48242 z M 970.17383 676.48242 C 968.76501 676.48242 967.45522 676.58681 966.24414 676.79688 C 965.03306 677.00696 964.08266 677.30441 963.39062 677.6875 C 962.42669 678.21889 961.68309 678.84705 961.16406 679.57617 C 960.65738 680.29294 960.26798 681.28246 959.99609 682.54297 L 967.20703 683.30273 C 967.50363 682.45002 967.89304 681.8695 968.375 681.56055 C 968.9929 681.16509 969.92045 680.9668 971.15625 680.9668 C 972.12019 680.9668 972.79463 681.15271 973.17773 681.52344 C 973.56083 681.89418 973.75195 682.54189 973.75195 683.46875 C 972.81274 683.8395 971.92432 684.14411 971.08398 684.37891 C 970.24362 684.60136 968.40616 684.99598 965.57617 685.56445 C 963.21579 686.03406 961.59812 686.75091 960.7207 687.71484 C 959.84329 688.67875 959.40625 689.90897 959.40625 691.4043 C 959.40625 692.99848 960.00961 694.34022 961.2207 695.42773 C 962.44414 696.5152 964.2301 697.05859 966.57812 697.05859 C 968.34531 697.05859 969.89581 696.78595 971.23047 696.24219 C 972.20675 695.83437 973.18908 695.1547 974.17773 694.20312 C 974.26423 694.7716 974.35101 695.19102 974.4375 695.46289 C 974.5239 695.72242 974.70796 696.10466 974.99219 696.61133 L 982.07422 696.61133 C 981.67875 695.7957 981.42044 695.13037 981.29688 694.61133 C 981.18568 694.07994 981.13086 693.34873 981.13086 692.42188 L 981.13086 683.73047 C 981.13086 682.80362 980.94301 681.83366 980.57227 680.82031 C 980.20154 679.79461 979.69535 679.00338 979.05273 678.44727 C 978.13823 677.644 976.99479 677.11825 975.62305 676.87109 C 974.25131 676.61158 972.43535 676.48242 970.17383 676.48242 z M 999.5918 676.48242 C 998.13351 676.48242 996.88767 676.73552 995.84961 677.24219 C 994.82392 677.74887 993.80241 678.60204 992.78906 679.80078 L 992.78906 676.92578 L 985.74414 676.92578 L 985.74414 696.61133 L 993.30859 696.61133 L 993.30859 686.56641 C 993.30859 685.07109 993.58642 683.99678 994.14258 683.3418 C 994.69861 682.68684 995.40838 682.35937 996.27344 682.35938 C 996.80476 682.35938 997.26854 682.51332 997.66406 682.82227 C 998.05946 683.11888 998.33755 683.51348 998.49805 684.00781 C 998.59695 684.31675 998.64648 684.90447 998.64648 685.76953 L 998.64648 696.61133 L 1006.209 696.61133 L 1006.209 686.45508 C 1006.209 685.0339 1006.4818 684.00003 1007.0254 683.35742 C 1007.5692 682.71479 1008.2858 682.39453 1009.1758 682.39453 C 1009.9295 682.39453 1010.5618 682.73437 1011.0684 683.41406 C 1011.4144 683.84658 1011.5859 684.5067 1011.5859 685.39648 L 1011.5859 696.61133 L 1019.1504 696.61133 L 1019.1504 684.24805 C 1019.1504 681.57872 1018.5556 679.62122 1017.3691 678.37305 C 1016.1828 677.11254 1014.533 676.48242 1012.4199 676.48242 C 1010.9864 676.48242 1009.783 676.71789 1008.8066 677.1875 C 1007.8304 677.64474 1006.7468 678.51554 1005.5605 679.80078 C 1004.9796 678.70091 1004.2331 677.87057 1003.3184 677.31445 C 1002.4041 676.75834 1001.1613 676.48242 999.5918 676.48242 z M 945.42773 680.94922 C 946.46579 680.94922 947.29943 681.26622 947.92969 681.89648 C 948.57231 682.52675 948.96889 683.56909 949.11719 685.02734 L 941.68164 685.02734 C 941.80522 683.85333 942.09549 682.96817 942.55273 682.375 C 943.26949 681.42342 944.22899 680.94922 945.42773 680.94922 z M 973.75195 687.26953 L 973.75195 688.47461 C 973.75195 689.41381 973.59802 690.18026 973.28906 690.77344 C 972.99246 691.35428 972.47912 691.84804 971.75 692.25586 C 971.03323 692.66369 970.2544 692.86914 969.41406 692.86914 C 968.61078 692.86914 968.00026 692.68324 967.58008 692.3125 C 967.17227 691.92939 966.9668 691.44085 966.9668 690.84766 C 966.9668 690.32863 967.17748 689.86484 967.59766 689.45703 C 968.00547 689.06157 968.97347 688.65977 970.50586 688.25195 C 971.63044 687.96772 972.71387 687.64027 973.75195 687.26953 z "
     id="path836" />
  <rect
     style="color:#000000;display:inline;overflow:visible;visibility:visible;fill:none;fill-opacity:0.75;fill-rule:evenodd;stroke:#000000;stroke-width:0.18983862;stroke-linecap:butt;stroke-linejoin:round;stroke-miterlimit:4;stroke-dasharray:none;stroke-dashoffset:0;stroke-opacity:1;marker:none;marker-start:none;marker-mid:none;marker-end:none;enable-background:accumulate"
     id="rect812"
     width="171.3922"
     height="174.23927"
     x="962.44556"
     y="-1.5010544"
     ry="11.38453" />
</svg>
