<?xml version="1.0" encoding="UTF-8" standalone="no"?>
<!-- Created with Inkscape (http://www.inkscape.org/) -->

<svg
   xmlns:dc="http://purl.org/dc/elements/1.1/"
   xmlns:cc="http://creativecommons.org/ns#"
   xmlns:rdf="http://www.w3.org/1999/02/22-rdf-syntax-ns#"
   xmlns:svg="http://www.w3.org/2000/svg"
   xmlns="http://www.w3.org/2000/svg"
   xmlns:sodipodi="http://sodipodi.sourceforge.net/DTD/sodipodi-0.dtd"
   xmlns:inkscape="http://www.inkscape.org/namespaces/inkscape"
   version="1.1"
   id="svg2"
   width="30cm"
   height="22cm"
   viewBox="0 0 1133.8583 831.49606"
   sodipodi:docname="marker25_26_27_frontright.svg"
   inkscape:version="0.92.3 (2405546, 2018-03-11)">
  <metadata
     id="metadata8">
    <rdf:RDF>
      <cc:Work
         rdf:about="">
        <dc:format>image/svg+xml</dc:format>
        <dc:type
           rdf:resource="http://purl.org/dc/dcmitype/StillImage" />
        <dc:title></dc:title>
      </cc:Work>
    </rdf:RDF>
  </metadata>
  <defs
     id="defs6" />
  <sodipodi:namedview
     pagecolor="#ffffff"
     bordercolor="#666666"
     borderopacity="1"
     objecttolerance="10"
     gridtolerance="10"
     guidetolerance="10"
     inkscape:pageopacity="0"
     inkscape:pageshadow="2"
     inkscape:window-width="2771"
     inkscape:window-height="1909"
     id="namedview4"
     showgrid="false"
     inkscape:zoom="0.96396528"
     inkscape:cx="158.9694"
     inkscape:cy="195.53344"
     inkscape:window-x="112"
     inkscape:window-y="79"
     inkscape:window-maximized="0"
     inkscape:current-layer="svg2"
     units="cm"
     inkscape:document-units="cm" />
  <path
     style="fill:#000000;stroke:none;stroke-width:1.29583824"
     d="M 75.589844 75.589844 L 75.589844 170.07812 L 75.589844 264.56641 L 170.07812 264.56641 L 264.56641 264.56641 L 264.56641 170.07812 L 264.56641 75.589844 L 170.07812 75.589844 L 75.589844 75.589844 z M 377.95312 75.589844 L 377.95312 415.74805 L 377.95312 755.90625 L 718.10938 755.90625 L 1058.2676 755.90625 L 1058.2676 415.74805 L 1058.2676 75.589844 L 718.10938 75.589844 L 377.95312 75.589844 z M 102.58789 102.58789 L 116.08594 102.58789 L 129.58398 102.58789 L 129.58398 116.08594 L 129.58398 129.58398 L 143.08203 129.58398 L 156.58008 129.58398 L 156.58008 116.08594 L 156.58008 102.58789 L 183.57617 102.58789 L 210.57422 102.58789 L 210.57422 116.08594 L 210.57422 129.58398 L 224.07227 129.58398 L 237.57031 129.58398 L 237.57031 170.07812 L 237.57031 210.57422 L 197.07617 210.57422 L 156.58008 210.57422 L 156.58008 197.07617 L 156.58008 183.57617 L 183.57617 183.57617 L 210.57422 183.57617 L 210.57422 156.58008 L 210.57422 129.58398 L 197.07617 129.58398 L 183.57617 129.58398 L 183.57617 143.08203 L 183.57617 156.58008 L 156.58008 156.58008 L 129.58398 156.58008 L 129.58398 143.08203 L 129.58398 129.58398 L 116.08594 129.58398 L 102.58789 129.58398 L 102.58789 116.08594 L 102.58789 102.58789 z M 572.32812 172.7793 L 620.92188 172.7793 L 669.51562 172.7793 L 669.51562 221.37305 L 669.51562 269.9668 L 620.92188 269.9668 L 572.32812 269.9668 L 572.32812 221.37305 L 572.32812 172.7793 z M 863.89258 172.7793 L 912.48633 172.7793 L 961.08008 172.7793 L 961.08008 221.37305 L 961.08008 269.9668 L 912.48633 269.9668 L 863.89258 269.9668 L 863.89258 318.56055 L 863.89258 367.1543 L 912.48633 367.1543 L 961.08008 367.1543 L 961.08008 415.74805 L 961.08008 464.3418 L 912.48633 464.3418 L 863.89258 464.3418 L 863.89258 415.74805 L 863.89258 367.1543 L 815.29883 367.1543 L 766.70508 367.1543 L 766.70508 318.56055 L 766.70508 269.9668 L 815.29883 269.9668 L 863.89258 269.9668 L 863.89258 221.37305 L 863.89258 172.7793 z M 102.58789 210.57422 L 116.08594 210.57422 L 129.58398 210.57422 L 129.58398 224.07227 L 129.58398 237.57031 L 116.08594 237.57031 L 102.58789 237.57031 L 102.58789 224.07227 L 102.58789 210.57422 z M 475.14062 367.1543 L 523.73438 367.1543 L 572.32812 367.1543 L 572.32812 415.74805 L 572.32812 464.3418 L 620.92188 464.3418 L 669.51562 464.3418 L 669.51562 561.5293 L 669.51562 658.7168 L 620.92188 658.7168 L 572.32812 658.7168 L 572.32812 610.12305 L 572.32812 561.5293 L 523.73438 561.5293 L 475.14062 561.5293 L 475.14062 464.3418 L 475.14062 367.1543 z M 863.89258 561.5293 L 912.48633 561.5293 L 961.08008 561.5293 L 961.08008 610.12305 L 961.08008 658.7168 L 912.48633 658.7168 L 863.89258 658.7168 L 863.89258 610.12305 L 863.89258 561.5293 z M 170.07617 566.92969 C 117.89247 566.93069 75.589944 609.2343 75.589844 661.41797 C 75.589844 713.60168 117.89247 755.90521 170.07617 755.90625 C 222.26137 755.90725 264.56641 713.60317 264.56641 661.41797 C 264.56631 609.23281 222.26127 566.92863 170.07617 566.92969 z M 170.07617 574.81836 C 218.03407 574.81836 256.67969 613.46007 256.67969 661.41797 C 256.67969 709.37597 218.03407 748.01953 170.07617 748.01953 C 122.11817 748.01953 83.476563 709.37597 83.476562 661.41797 C 83.476562 613.46007 122.11817 574.81836 170.07617 574.81836 z M 103.82422 615.31055 L 103.82422 649.83398 L 114.53906 649.83398 L 114.53906 635.72852 L 127.91602 635.72852 L 127.91602 628.75781 L 114.53906 628.75781 L 114.53906 622.72852 L 130.19922 622.72852 L 130.19922 615.31055 L 103.82422 615.31055 z M 231.98242 615.31055 L 222.37305 620.23242 L 222.37305 624.82422 L 218.8418 624.82422 L 218.8418 631.81836 L 222.37305 631.81836 L 222.37305 640.62695 C 222.37305 643.42155 222.64003 645.44714 223.17383 646.70312 C 223.72333 647.94342 224.56491 648.86817 225.69531 649.48047 C 226.82571 650.09276 228.58236 650.40039 230.96875 650.40039 C 233.02545 650.40039 235.24063 650.14114 237.61133 649.62305 L 236.9043 643.00586 C 235.6326 643.41405 234.64399 643.61719 233.9375 643.61719 C 233.1525 643.61719 232.60306 643.3502 232.28906 642.81641 C 232.08496 642.47101 231.98242 641.76487 231.98242 640.69727 L 231.98242 631.81836 L 237.25781 631.81836 L 237.25781 624.82422 L 231.98242 624.82422 L 231.98242 615.31055 z M 148.94531 624.25977 C 147.59511 624.25977 146.45755 624.59639 145.53125 625.27148 C 144.62065 625.93088 143.73263 627.14778 142.86914 628.92188 L 142.86914 624.82422 L 133.89648 624.82422 L 133.89648 649.83398 L 143.5293 649.83398 L 143.5293 641.45117 C 143.5293 637.44768 144.02263 634.71596 145.01172 633.25586 C 145.70252 632.21966 146.67564 631.70117 147.93164 631.70117 C 148.59104 631.70117 149.48679 631.9372 150.61719 632.4082 L 153.58398 625.57812 C 151.90408 624.69894 150.35831 624.25977 148.94531 624.25977 z M 169.10352 624.25977 C 164.72322 624.25977 161.24666 625.49988 158.67188 627.98047 C 156.09708 630.44536 154.80859 633.5853 154.80859 637.40039 C 154.80859 641.49808 156.33116 644.81019 159.37695 647.33789 C 161.85755 649.37888 165.10775 650.40039 169.12695 650.40039 C 173.63284 650.40039 177.15777 649.17576 179.70117 646.72656 C 182.26027 644.26167 183.54102 641.10627 183.54102 637.25977 C 183.54102 633.83717 182.51177 630.95453 180.45508 628.61523 C 177.89598 625.71074 174.1118 624.25977 169.10352 624.25977 z M 206.17188 624.25977 C 204.20938 624.25977 202.54559 624.6196 201.17969 625.3418 C 199.81379 626.0483 198.46341 627.23424 197.12891 628.89844 L 197.12891 624.82422 L 188.20312 624.82422 L 188.20312 649.83398 L 197.78711 649.83398 L 197.78711 637.82422 C 197.78711 635.54773 198.14889 633.96904 198.87109 633.08984 C 199.59329 632.21064 200.53547 631.77148 201.69727 631.77148 C 202.74917 631.77148 203.56558 632.10232 204.14648 632.76172 C 204.72738 633.40542 205.01758 634.51203 205.01758 636.08203 L 205.01758 649.83398 L 214.65039 649.83398 L 214.65039 633.9375 C 214.65039 630.64051 213.89587 628.20867 212.38867 626.63867 C 210.89718 625.05298 208.82516 624.25977 206.17188 624.25977 z M 169.24609 630.85352 C 170.56489 630.85352 171.67151 631.38748 172.56641 632.45508 C 173.46131 633.50698 173.9082 635.11661 173.9082 637.2832 C 173.9082 639.6068 173.46131 641.2938 172.56641 642.3457 C 171.68721 643.3976 170.55542 643.92383 169.17383 643.92383 C 167.80793 643.92383 166.67037 643.38986 165.75977 642.32227 C 164.86487 641.25467 164.41797 639.60635 164.41797 637.37695 C 164.41797 635.17896 164.8726 633.54612 165.7832 632.47852 C 166.6938 631.39522 167.84879 630.85352 169.24609 630.85352 z M 103.54102 670.77539 L 103.54102 705.29883 L 114.25586 705.29883 L 114.25586 691.28711 L 115.19727 691.28711 C 116.17067 691.28711 117.0432 691.55409 117.8125 692.08789 C 118.3777 692.49609 119.02195 693.38411 119.74414 694.75 L 125.44141 705.29883 L 137.5 705.29883 L 132.3418 695.29102 C 132.0906 694.78862 131.58954 694.07473 130.83594 693.14844 C 130.09804 692.22214 129.53117 691.61658 129.13867 691.33398 C 128.55777 690.91008 127.63303 690.4864 126.36133 690.0625 C 127.94703 689.7014 129.19487 689.24677 130.10547 688.69727 C 131.53416 687.83377 132.65626 686.70972 133.47266 685.32812 C 134.28906 683.93084 134.69727 682.27476 134.69727 680.35938 C 134.69727 678.16138 134.1633 676.3022 133.0957 674.7793 C 132.02811 673.2407 130.62356 672.18825 128.88086 671.62305 C 127.13816 671.05785 124.61731 670.77539 121.32031 670.77539 L 103.54102 670.77539 z M 140.60938 670.77539 L 140.60938 677.29883 L 150.19336 677.29883 L 150.19336 670.77539 L 140.60938 670.77539 z M 188.58008 670.77539 L 188.58008 705.29883 L 198.16406 705.29883 L 198.16406 693.28906 C 198.16406 691.01257 198.52585 689.43389 199.24805 688.55469 C 199.97025 687.67549 200.91243 687.23633 202.07422 687.23633 C 203.12612 687.23633 203.94254 687.56716 204.52344 688.22656 C 205.10434 688.87026 205.39453 689.97688 205.39453 691.54688 L 205.39453 705.29883 L 215.02539 705.29883 L 215.02539 689.40234 C 215.02539 686.12105 214.27282 683.68922 212.76562 682.10352 C 211.27414 680.51782 209.22533 679.72461 206.61914 679.72461 C 204.86074 679.72461 203.33818 680.01481 202.05078 680.5957 C 200.76339 681.1766 199.46716 682.14199 198.16406 683.49219 L 198.16406 670.77539 L 188.58008 670.77539 z M 232.35938 670.77539 L 222.75 675.69727 L 222.75 680.28906 L 219.21875 680.28906 L 219.21875 687.2832 L 222.75 687.2832 L 222.75 696.0918 C 222.75 698.88639 223.01699 700.91197 223.55078 702.16797 C 224.10028 703.40827 224.94187 704.33301 226.07227 704.94531 C 227.20267 705.55761 228.95931 705.86523 231.3457 705.86523 C 233.4024 705.86523 235.61759 705.60599 237.98828 705.08789 L 237.28125 698.4707 C 236.00956 698.8789 235.02095 699.08203 234.31445 699.08203 C 233.52945 699.08203 232.98002 698.81505 232.66602 698.28125 C 232.46192 697.93585 232.35937 697.22971 232.35938 696.16211 L 232.35938 687.2832 L 237.63477 687.2832 L 237.63477 680.28906 L 232.35938 680.28906 L 232.35938 670.77539 z M 114.25586 677.74609 L 118.94336 677.74609 C 120.89015 677.74609 122.21538 678.04404 122.92188 678.64062 C 123.62836 679.23722 123.98242 680.09234 123.98242 681.20703 C 123.98242 681.96063 123.75413 682.62808 123.29883 683.20898 C 122.85923 683.78988 122.28658 684.15167 121.58008 684.29297 C 120.18278 684.60697 119.24061 684.76367 118.75391 684.76367 L 114.25586 684.76367 L 114.25586 677.74609 z M 165.40625 679.72461 C 162.36046 679.72461 159.89571 680.74416 158.01172 682.78516 C 156.12772 684.82616 155.18555 687.79391 155.18555 691.6875 C 155.18555 695.09439 155.91685 697.83386 157.37695 699.90625 C 159.43365 702.82645 162.13247 704.28711 165.47656 704.28711 C 167.18786 704.28711 168.78201 703.89436 170.25781 703.10938 C 171.19981 702.60698 172.14198 701.79829 173.08398 700.68359 L 173.08398 704.47461 C 173.08398 706.3115 172.73766 707.59999 172.04688 708.33789 C 171.37178 709.07579 170.34448 709.44336 168.96289 709.44336 C 167.89529 709.44336 167.00728 709.20154 166.30078 708.71484 C 165.81408 708.38514 165.45425 707.78733 165.21875 706.92383 L 155.91602 705.86523 C 155.88462 706.39903 155.86914 706.82272 155.86914 707.13672 C 155.86914 709.66442 156.80358 711.68226 158.67188 713.18945 C 160.55586 714.69665 164.00921 715.44922 169.0332 715.44922 C 171.2312 715.44922 173.17745 715.25383 174.87305 714.86133 C 176.58434 714.46883 177.99084 713.83232 179.08984 712.95312 C 180.20454 712.07394 181.0906 710.92089 181.75 709.49219 C 182.4251 708.07919 182.76367 706.58757 182.76367 705.01758 L 182.74023 703.91016 L 182.74023 680.28906 L 173.76758 680.28906 L 173.76758 683.98633 C 172.66858 682.46343 171.48263 681.37229 170.21094 680.71289 C 168.95494 680.0535 167.35305 679.72461 165.40625 679.72461 z M 140.60938 680.28906 L 140.60938 705.29883 L 150.19336 705.29883 L 150.19336 680.28906 L 140.60938 680.28906 z M 168.77344 686.67188 C 169.99804 686.67188 171.03502 687.15747 171.88281 688.13086 C 172.73061 689.08856 173.1543 690.47958 173.1543 692.30078 C 173.1543 694.12197 172.74609 695.48784 171.92969 696.39844 C 171.12899 697.29334 170.13265 697.74023 168.93945 697.74023 C 167.68345 697.74023 166.66969 697.30881 165.90039 696.44531 C 165.13109 695.56611 164.74805 694.22346 164.74805 692.41797 C 164.74805 690.36127 165.10788 688.89287 165.83008 688.01367 C 166.56798 687.11878 167.54884 686.67187 168.77344 686.67188 z "
     id="path836" />
</svg>
